<svg width="70" height="70" viewBox="0 0 70 70" fill="none" xmlns="http://www.w3.org/2000/svg">
<path d="M35 0C15.7015 0 0 15.7015 0 35C0 54.2985 15.7015 70 35 70C54.2985 70 70 54.2985 70 35C70 15.7015 54.2985 0 35 0ZM35 5.38462C51.3881 5.38462 64.6154 18.6119 64.6154 35C64.6154 51.3881 51.3881 64.6154 35 64.6154C18.6119 64.6154 5.38462 51.3881 5.38462 35C5.38462 18.6119 18.6119 5.38462 35 5.38462ZM36.9385 17.7531L33.0615 21.5385L43.8308 32.3077H16.1538V37.6923H43.8308L33.0615 48.4615L36.9385 52.2469L52.2469 36.9358L54.1854 34.9973L52.2469 33.0588L36.9358 17.7504L36.9385 17.7531Z" fill="#E8E7CB"/>
</svg>
