<svg width="32" height="32" viewBox="0 0 40 40" fill="currentColor" xmlns="http://www.w3.org/2000/svg">
    <path d="M27.9999 13.4C27.9999 13.0464 27.8594 12.7072 27.6094 12.4572C27.3593 12.2071 27.0202 12.0667 26.6666 12.0667L15.9999 12C15.6463 12 15.3072 12.1405 15.0571 12.3905C14.8071 12.6406 14.6666 12.9797 14.6666 13.3333C14.6666 13.687 14.8071 14.0261 15.0571 14.2761C15.3072 14.5262 15.6463 14.6667 15.9999 14.6667H23.4133L12.3866 25.72C12.2616 25.844 12.1624 25.9914 12.0947 26.1539C12.027 26.3164 11.9922 26.4906 11.9922 26.6667C11.9922 26.8427 12.027 27.017 12.0947 27.1794C12.1624 27.3419 12.2616 27.4894 12.3866 27.6133C12.5105 27.7383 12.658 27.8375 12.8205 27.9052C12.983 27.9729 13.1572 28.0077 13.3333 28.0077C13.5093 28.0077 13.6835 27.9729 13.846 27.9052C14.0085 27.8375 14.156 27.7383 14.2799 27.6133L25.3333 16.56V24C25.3333 24.3536 25.4737 24.6928 25.7238 24.9428C25.9738 25.1929 26.313 25.3333 26.6666 25.3333C27.0202 25.3333 27.3593 25.1929 27.6094 24.9428C27.8594 24.6928 27.9999 24.3536 27.9999 24V13.4Z" />
    </svg>
    