<svg width="28" height="28" viewBox="0 0 28 28" fill="none" xmlns="http://www.w3.org/2000/svg">
<path d="M7.83993 10.6338L3.79962 14.0004L7.83993 17.367C7.97393 17.4768 8.08486 17.612 8.16633 17.7649C8.24779 17.9178 8.29818 18.0853 8.31459 18.2578C8.331 18.4302 8.31311 18.6043 8.26194 18.7698C8.21077 18.9353 8.12734 19.089 8.01647 19.2221C7.90559 19.3553 7.76945 19.4651 7.61591 19.5453C7.46237 19.6256 7.29447 19.6746 7.12188 19.6897C6.94929 19.7047 6.77543 19.6854 6.61033 19.6329C6.44523 19.5804 6.29216 19.4958 6.15993 19.3838L0.909934 15.0088C0.762072 14.8857 0.643105 14.7315 0.561463 14.5572C0.47982 14.3829 0.4375 14.1928 0.4375 14.0004C0.4375 13.808 0.47982 13.6179 0.561463 13.4436C0.643105 13.2693 0.762072 13.1151 0.909934 12.992L6.15993 8.61697C6.42776 8.39747 6.77148 8.29272 7.1162 8.32552C7.46093 8.35832 7.77872 8.52602 8.00034 8.79209C8.22197 9.05816 8.32947 9.40103 8.29942 9.746C8.26938 10.091 8.10422 10.4101 7.83993 10.6338ZM27.0899 12.992L21.8399 8.61697C21.7077 8.50503 21.5546 8.42037 21.3895 8.36788C21.2244 8.31539 21.0506 8.29611 20.878 8.31114C20.7054 8.32617 20.5375 8.37522 20.384 8.45546C20.2304 8.53571 20.0943 8.64555 19.9834 8.77866C19.8725 8.91178 19.7891 9.06552 19.7379 9.23104C19.6868 9.39655 19.6689 9.57055 19.6853 9.74302C19.7017 9.91548 19.7521 10.083 19.8335 10.2359C19.915 10.3888 20.0259 10.524 20.1599 10.6338L24.2002 14.0004L20.1599 17.367C20.0259 17.4768 19.915 17.612 19.8335 17.7649C19.7521 17.9178 19.7017 18.0853 19.6853 18.2578C19.6689 18.4302 19.6868 18.6043 19.7379 18.7698C19.7891 18.9353 19.8725 19.089 19.9834 19.2221C20.0943 19.3553 20.2304 19.4651 20.384 19.5453C20.5375 19.6256 20.7054 19.6746 20.878 19.6897C21.0506 19.7047 21.2244 19.6854 21.3895 19.6329C21.5546 19.5804 21.7077 19.4958 21.8399 19.3838L27.0899 15.0088C27.2378 14.8857 27.3568 14.7315 27.4384 14.5572C27.5201 14.3829 27.5624 14.1928 27.5624 14.0004C27.5624 13.808 27.5201 13.6179 27.4384 13.4436C27.3568 13.2693 27.2378 13.1151 27.0899 12.992ZM17.9484 3.14165C17.7864 3.08274 17.6143 3.05631 17.4421 3.06389C17.2699 3.07147 17.1008 3.11291 16.9446 3.18584C16.7884 3.25876 16.6481 3.36175 16.5317 3.48891C16.4153 3.61608 16.3251 3.76493 16.2662 3.92697L9.26619 23.177C9.14753 23.504 9.1636 23.8648 9.31086 24.1801C9.45811 24.4953 9.72451 24.7392 10.0515 24.8581C10.1951 24.9111 10.3469 24.9381 10.4999 24.9379C10.7694 24.9379 11.0324 24.855 11.2531 24.7005C11.4738 24.5459 11.6416 24.3271 11.7337 24.0738L18.7337 4.82384C18.7926 4.66183 18.819 4.48979 18.8114 4.31756C18.8039 4.14533 18.7624 3.97628 18.6895 3.82007C18.6166 3.66385 18.5136 3.52354 18.3864 3.40713C18.2593 3.29073 18.1104 3.20052 17.9484 3.14165Z" fill="url(#paint0_linear_144_20)"/>
<defs>
<linearGradient id="paint0_linear_144_20" x1="13.9999" y1="3.06262" x2="13.9999" y2="24.9379" gradientUnits="userSpaceOnUse">
<stop stop-color="#DD5141"/>
<stop offset="1" stop-color="#EFAD55"/>
</linearGradient>
</defs>
</svg>
